# xmcd CD database file
#
# Track frame offsets:
#	150
#	45317
#	81980
#	106405
#	134967
#	159890
#	181995
#	218587
#	240180
#	289825
#
# Disc length: 4247 seconds
#
# Revision: 5
# Processed by: cddbd v1.5.2PL0 Copyright (c) Steve Scherf et al.
# Submitted via: CDex 1.70
#
DISCID=8210950a
DTITLE=Roy Hargrove - Roy Hargrove's Crisol Habana
DYEAR=1997
DGENRE=Jazz
TTITLE0=O My Seh Yeh
TTITLE1=Una Mas
TTITLE2=Dream Traveler
TTITLE3=Nusia's Poem
TTITLE4=Mr. Bruce
TTITLE5=Ballad For The Children
TTITLE6=Mountaings
TTITLE7=Afrodisia
TTITLE8=Mambo For Roy
TTITLE9=O My Seh Yeh (reprise)
EXTD=YEAR: 1997
EXTT0=
EXTT1=
EXTT2=
EXTT3=
EXTT4=
EXTT5=
EXTT6=
EXTT7=
EXTT8=
EXTT9=
PLAYORDER=
